<svg xmlns="http://www.w3.org/2000/svg" width="271.817" height="96.477" viewBox="0 0 271.817 96.477"><g transform="translate(-147 -61.523)"><path d="M12.57,45.42s12-12.626,12-25.023S8.391,0,8.391,0A30.344,30.344,0,0,0,0,20.4C0,32.795,12.57,45.42,12.57,45.42Z" transform="translate(373.929 120.557) rotate(-99)" fill="#eab4c2" opacity="0.4"/><path d="M12.57,49.589s12-12.626,12-25.023S12.57,0,12.57,0,0,12.169,0,24.566,12.57,49.589,12.57,49.589Z" transform="translate(380.279 122.001) rotate(-129)" fill="#eab4c2" opacity="0.65"/><path d="M12.57,0s12,12.626,12,25.023-12,24.566-12,24.566S0,37.42,0,25.023,12.57,0,12.57,0Z" transform="translate(352.576 65.366) rotate(-9)" fill="#eab4c2" opacity="0.65"/><path d="M12.57,0s12,12.626,12,25.023-12,24.566-12,24.566S0,37.42,0,25.023,12.57,0,12.57,0Z" transform="translate(378.633 61.617) rotate(21)" fill="#eab4c2" opacity="0.65"/><path d="M12.57,0s12,12.626,12,25.023S7.155,43.278,7.155,43.278,0,37.42,0,25.023,12.57,0,12.57,0Z" transform="translate(339.798 83.129) rotate(-39)" fill="#eab4c2" opacity="0.4"/><text transform="translate(147 142)" fill="#eab4c2" font-size="62" font-family="SegoeUI-Bold, Segoe UI" font-weight="700" letter-spacing="-0.048em"><tspan x="0" y="0">Cup</tspan><tspan y="0" fill="#4f4c67">able</tspan></text></g></svg>